<svg class="MuiSvgIcon-root MuiSvgIcon-fontSizeLarge" focusable="false" viewBox="0 0 30 33" aria-hidden="true"><g fill-rule="nonzero" fill="none"><path d="M16.316 10.892a2.746 2.746 0 013.407-1.853 2.736 2.736 0 011.859 3.392 2.744 2.744 0 01-3.406 1.852 2.723 2.723 0 01-1.86-3.39m-2.672 2.19l1.875 8.403 7.217-5.887c.671-.65 1.214-1.445 1.495-2.394.856-2.906-.814-5.947-3.731-6.8-2.92-.853-5.975.81-6.831 3.715-.297 1.004-.27 2.012-.025 2.962" fill="currentColor"></path><path d="M8.791 6.43c-2.904.894-4.53 3.96-3.63 6.853.296.944.849 1.732 1.53 2.372l7.548 5.208-1.68-7.486c-.33.408-.784.727-1.328.895a2.746 2.746 0 01-3.433-1.802c-.45-1.436.368-2.973 1.808-3.42a2.747 2.747 0 012.959.918c.014-.053.02-.107.037-.16a6.505 6.505 0 011.31-2.374 5.508 5.508 0 00-5.12-1.005M11.864 27.236h-.001a45.775 45.775 0 01.403 1.783c.074.368.137.713.182 1.022.383 2.592 1.608 2.901 2.05 2.926V23.442l-4.771-3.754c.414 1.345 1.445 4.721 2.137 7.548" fill="currentColor"></path><path d="M14.684 0C6.588 0 0 6.558 0 14.617 0 21.72 5.118 27.65 11.874 28.96a48.409 48.409 0 00-.418-1.828C5.85 25.697 1.69 20.64 1.69 14.617c0-7.132 5.828-12.934 12.993-12.934 7.166 0 12.996 5.802 12.996 12.934 0 6.047-4.196 11.119-9.838 12.527a50.846 50.846 0 00-.407 1.811C24.22 27.67 29.37 21.74 29.37 14.617 29.37 6.557 22.782 0 14.684 0" fill="currentColor"></path><path d="M19.505 19.682l-3.283 2.663-1.352 1.096v9.526c.43-.028 1.61-.344 1.992-2.927.045-.305.107-.649.181-1.02h.001c.107-.54.24-1.137.39-1.769.647-2.706 1.601-5.989 2.071-7.57" fill="currentColor"></path></g></svg>