<svg width="162" height="33" viewBox="0 0 162 33"><g fill-rule="nonzero" fill="none"><path d="M16.316 10.892a2.746 2.746 0 013.407-1.853 2.736 2.736 0 011.859 3.392 2.744 2.744 0 01-3.406 1.852 2.723 2.723 0 01-1.86-3.39m-2.672 2.19l1.875 8.403 7.217-5.887c.671-.65 1.214-1.445 1.495-2.394.856-2.906-.814-5.947-3.731-6.8-2.92-.853-5.975.81-6.831 3.715-.297 1.004-.27 2.012-.025 2.962" fill="#ffffff"></path><path d="M8.791 6.43c-2.904.894-4.53 3.96-3.63 6.853.296.944.849 1.732 1.53 2.372l7.548 5.208-1.68-7.486c-.33.408-.784.727-1.328.895a2.746 2.746 0 01-3.433-1.802c-.45-1.436.368-2.973 1.808-3.42a2.747 2.747 0 012.959.918c.014-.053.02-.107.037-.16a6.505 6.505 0 011.31-2.374 5.508 5.508 0 00-5.12-1.005M11.864 27.236h-.001a45.775 45.775 0 01.403 1.783c.074.368.137.713.182 1.022.383 2.592 1.608 2.901 2.05 2.926V23.442l-4.771-3.754c.414 1.345 1.445 4.721 2.137 7.548" fill="#11af9d"></path><path d="M14.684 0C6.588 0 0 6.558 0 14.617 0 21.72 5.118 27.65 11.874 28.96a48.409 48.409 0 00-.418-1.828C5.85 25.697 1.69 20.64 1.69 14.617c0-7.132 5.828-12.934 12.993-12.934 7.166 0 12.996 5.802 12.996 12.934 0 6.047-4.196 11.119-9.838 12.527a50.846 50.846 0 00-.407 1.811C24.22 27.67 29.37 21.74 29.37 14.617 29.37 6.557 22.782 0 14.684 0" fill="#ffffff"></path><path d="M19.505 19.682l-3.283 2.663-1.352 1.096v9.526c.43-.028 1.61-.344 1.992-2.927.045-.305.107-.649.181-1.02h.001c.107-.54.24-1.137.39-1.769.647-2.706 1.601-5.989 2.071-7.57" fill="#ffffff"></path><path d="M53.382 16.98h-.688c-.586 3.978-2.694 6.66-5.461 6.66h-1.465c-1.58 0-1.888-.262-1.888-2.128V6.355c0-2.172.395-2.478 2.43-2.565v-.598c-1.113.058-2.972.087-4.714.087-1.918 0-3.72-.029-4.73-.087v.598c1.89.087 2.24.393 2.24 2.565v14.807c0 2.172-.336 2.478-2.24 2.566v.597c3.266-.087 7.76-.087 9.766-.087 2.02 0 4.832 0 6.867.087a53.93 53.93 0 01-.205-4.722c0-1.02.03-1.938.088-2.623M59.78 14.531c.249-3.862 1.318-5.422 2.665-5.422 1.464 0 2.093 2.507 2.035 5.422h-4.7zm8.477.568c0-4.678-2.137-6.63-5.637-6.63-4.26 0-7.335 2.754-7.335 8.292 0 5.45 2.87 7.987 6.91 7.987 3.324 0 5.286-2.405 6.004-4.65l-.542-.204c-1.215 1.983-2.738 2.39-3.939 2.39-1.903 0-3.909-1.617-3.909-5.77 0-.482.015-.977.059-1.415h8.39z" fill="#11af9d"></path><path d="M81.888 3.542c1.42 0 2.796.51 3.792 1.472 1.552 1.224 1.933 2.667 2.255 5.407h.703c0-3.644.029-5.699.117-7.229h-.688c-.117 1.224-.352 1.778-.776 1.778-.161 0-.366-.087-.586-.262-1.318-1.006-2.87-1.939-5.505-1.939-6.237 0-10.615 4.49-10.615 11.165 0 6.835 4.231 10.814 10.586 10.814 2.576 0 4.07-.904 5.534-1.939.249-.16.454-.247.63-.247.424 0 .615.539.732 1.763h.688c-.088-1.588-.117-3.731-.117-7.52h-.703c-.278 2.915-.644 4.576-2.196 5.771-.967.962-2.416 1.443-3.734 1.443-4.29 0-6.09-4.853-6.09-10.202 0-5.276 1.668-10.275 5.973-10.275M95.065 5.8c1.654 0 2.723-.874 2.723-2.316 0-1.429-1.069-2.303-2.723-2.303-1.684 0-2.738.874-2.738 2.303 0 1.442 1.054 2.317 2.738 2.317M97.422 21.556v-13c-1.26.29-2.709.422-4.378.422-.6 0-1.23-.044-1.86-.102v.627c1.45 0 1.919.845 1.919 2.638v9.415c0 1.661-.527 2.142-1.918 2.142v.627c.79-.029 2.591-.117 4.143-.117 1.567 0 3.25.088 4.012.117v-.627c-1.406 0-1.918-.48-1.918-2.142M109.062 15.202c-1.845-1.37-3.69-2.362-3.69-4.154 0-1.224.878-1.924 2.035-1.924 2.562 0 3.543 2.42 3.85 4.62h.63c0-2.653.03-4.11.132-5.247h-.644c-.103.744-.351 1.093-.703 1.093-.161 0-.337-.073-.542-.204-.585-.379-1.903-.918-3.587-.918-2.723 0-5.154 1.457-5.154 4.11 0 2.405 1.801 3.76 3.763 5.29 1.728 1.341 3.031 2.318 3.031 4.067 0 1.53-1.069 2.128-2.108 2.128-2.519 0-3.675-2.26-4.041-5.495h-.645c0 3.017-.029 4.679-.117 5.961h.63c.146-.641.395-1.064.732-1.064.044 0 .088.015.132.03.424.13.849.35 1.39.626.674.364 1.611.627 2.812.627 3.09 0 5.68-1.705 5.68-4.43 0-2.362-1.58-3.645-3.586-5.116M119.354 14.531c.249-3.862 1.318-5.422 2.665-5.422 1.464 0 2.094 2.507 2.035 5.422h-4.7zm8.478.568c0-4.678-2.138-6.63-5.638-6.63-4.26 0-7.335 2.754-7.335 8.292 0 5.45 2.87 7.987 6.91 7.987 3.325 0 5.286-2.405 6.004-4.65l-.542-.204c-1.215 1.983-2.738 2.39-3.938 2.39-1.904 0-3.91-1.617-3.91-5.77 0-.482.015-.977.059-1.415h8.39zM137.89 21.41c-.63.89-1.289 1.21-2.02 1.21-1.07 0-1.875-.67-1.875-2.317 0-1.793.981-2.77 2.035-3.542 1.01-.627 1.581-1.02 1.86-1.472v6.121zm4.963 2.026c-.483 0-.644-.364-.644-1.326v-8.118c0-2.084-.19-3.28-1.069-4.183-.966-.991-2.46-1.34-4.392-1.34-2.02 0-3.485.422-4.554 1.02-.98.568-1.683 1.398-1.683 2.491 0 1.312.82 2.303 2.122 2.303 1.48 0 2.446-.903 2.446-2.142 0-1.21-.703-1.982-1.772-2.347.542-.524 1.42-.728 2.138-.728 1.771 0 2.445 1.107 2.445 2.667v2.332c0 1.282-1.728 1.85-3.939 2.681-2.782 1.02-4.217 2.23-4.217 4.387 0 2.172 1.552 3.396 3.793 3.396 1.683 0 3.396-.743 4.421-2.42.015 1.284.688 2.42 2.885 2.42 1.522 0 2.518-.364 3.426-1.093l-.308-.51c-.336.262-.673.51-1.098.51zM160.042 21.09V8.556c-1.245.291-2.709.422-4.378.422-.6 0-1.23-.044-1.86-.102v.627c1.45 0 1.918.845 1.918 2.638v7.84c0 1.968-1.317 3.455-2.913 3.455-1.494 0-1.786-1.02-1.786-2.507V8.556c-1.26.291-2.71.422-4.378.422-.6 0-1.23-.044-1.86-.102v.627c1.45 0 1.918.845 1.918 2.638v7.564c0 1.968.25 3.12.908 3.862.63.7 1.625 1.18 3.28 1.18 2.064 0 3.85-.786 4.832-2.783v2.696c1.244-.291 2.708-.408 4.377-.408.6 0 1.23.03 1.86.088v-.627c-1.45 0-1.918-.845-1.918-2.623" fill="#ffffff"></path></g></svg>